# xmcd
#
# Track frame offsets: 
#        150
#        18033
#        50611
#        72388
#        90763
#        111821
#        122393
#        140106
#        187270
#        223988
#
# Disc length: 3437 seconds
#
# Revision: 0
# Processed by: cddbd v1.5.1PL2 Copyright (c) Steve Scherf et al.
# Submitted via: ExactAudioCopy v0.95b1
#
DISCID=8f0d6b0a
DTITLE=Robert Cray - Bremen 1985
DYEAR=1900
DGENRE=
TTITLE0=Bad Influence
TTITLE1=What's The Reason
TTITLE2=Who's Been Talkin'
TTITLE3=Wrapped Up In Love Again
TTITLE4=I Got Loaded
TTITLE5=Band Intro
TTITLE6=If You're Thinkin' What I'm Thinkin'
TTITLE7=Let Me Love You Baby
TTITLE8=Blues With A Feelin'
TTITLE9=Same Thing
EXTD=
EXTT0=
EXTT1=
EXTT2=
EXTT3=
EXTT4=
EXTT5=
EXTT6=
EXTT7=
EXTT8=
EXTT9=
PLAYORDER=
